<?xml version="1.0" encoding="utf-8"?>
<!-- Generator: Adobe Illustrator 19.0.0, SVG Export Plug-In . SVG Version: 6.00 Build 0)  -->
<svg version="1.1" id="Capa_1" xmlns="http://www.w3.org/2000/svg" x="0px"
     y="0px"
     viewBox="-150 202.3 373.5 343.5" style="enable-background:new -150 202.3 373.5 343.5;" xml:space="preserve">
<style type="text/css">

	.st1{display:none;}
	.st2{display:inline;}
</style>
    <g>
	<g>
		<g>
			<g>
				<path d="M175.7,347.5c-0.1-0.7-0.3-1.4-0.4-2.1c-0.1-0.7-0.3-1.5-0.4-2.2c0-0.1,0-0.1,0-0.2
					c-0.2-0.8-0.3-1.6-0.5-2.3c-0.2-0.7-0.3-1.5-0.4-2.2c-0.2-0.7-0.3-1.4-0.4-2.1c-0.1-0.7-0.3-1.3-0.4-2
					c-8.9-40.2-24.2-63-43.1-76c-0.3-0.2-0.6-0.4-0.9-0.6c-0.3-0.2-0.6-0.4-0.9-0.6c-0.3-0.2-0.6-0.4-1-0.6c-0.3-0.2-0.7-0.4-1-0.6
					c-0.3-0.2-0.7-0.4-1-0.6c-0.4-0.2-0.7-0.4-1.1-0.6c-0.4-0.2-0.7-0.4-1.1-0.6c-0.1-0.1-0.3-0.1-0.4-0.2
					c-20.5-11-44.5-12.3-68.6-12.5c-0.8,0-1.6,0-2.4,0c-1.7,0-3.3,0-5,0H33.3c-0.6,0-1.2,0-1.9,0s-1.2,0-1.9,0c-0.3,0-0.7,0-1,0
					c-18.3,0.1-37,0.8-54.3,6.6c-0.5,0.2-0.9,0.3-1.4,0.5c-0.3,0.1-0.5,0.2-0.8,0.3c-31,11.3-57,39.8-66.6,112.3
					c-0.1,1.1-0.3,2.2-0.4,3.3c-2.3,18.7-3.5,40.2-3.5,65c0,37.3,17.1,64.3,40.9,82.6c0.8,0.6,1.5,1.2,2.3,1.8
					c0.4,0.3,0.8,0.6,1.3,0.9c1.3,0.9,2.5,1.8,3.8,2.6c0.9,0.6,1.8,1.2,2.7,1.7c1.4,0.9,2.9,1.8,4.3,2.6h0c1,0.6,2.1,1.2,3.2,1.8
					c1.6,0.9,3.2,1.7,4.8,2.5c0.6,0.3,1.2,0.6,1.8,0.9c1.8,0.9,3.6,1.7,5.4,2.5c1.2,0.5,2.4,1.1,3.7,1.6c1.4,0.6,2.7,1.1,4.1,1.6
					c2.7,1,5.5,2,8.2,2.9c18.6,6.1,37.5,8.8,53.5,8.8c7.6,0,15.9-0.6,24.4-1.9c0.8-0.1,1.6-0.3,2.5-0.4c1.6-0.3,3.3-0.6,5-0.9
					c1.7-0.3,3.3-0.7,5-1c3.1-0.7,6.2-1.5,9.3-2.3c1.2-0.3,2.3-0.7,3.5-1h0c1.2-0.3,2.3-0.7,3.5-1.1c0,0,0,0,0,0
					c2.1-0.7,4.1-1.4,6.2-2.1c0.7-0.2,1.3-0.5,2-0.7c2-0.7,3.9-1.5,5.9-2.3c0,0,0,0,0,0c1.2-0.5,2.4-1,3.6-1.6
					c1.2-0.5,2.3-1.1,3.5-1.6c0.6-0.3,1.1-0.5,1.7-0.8c1.1-0.5,2.2-1.1,3.3-1.7h0c0.5-0.3,1-0.5,1.6-0.8c1-0.6,2.1-1.1,3.1-1.7
					c1-0.6,2-1.1,2.9-1.7c0.5-0.3,0.9-0.6,1.4-0.9c1.8-1.1,3.6-2.3,5.4-3.5c0.8-0.6,1.7-1.2,2.5-1.8c0.8-0.6,1.6-1.2,2.4-1.8
					c0.8-0.6,1.5-1.2,2.3-1.8c22.9-18.4,39.3-44.9,39.3-81.4C181.7,396.7,179.6,369.8,175.7,347.5z M53.1,391.5v-17.1
					c7.7-1.2,13.4-6.5,13.4-12.7v-70.1c0-6.2-5.8-11.5-13.4-12.7v-21.1c50.6,0.1,98,1.8,108.2,113.7
					C150.6,375.7,109.4,390.4,53.1,391.5z M35,397.3c-40.5-0.8-80.1-8.2-117.8-22.1C-71.7,253.6-20.1,251.9,35,251.8v27
					c-8.3,1.3-14.5,7-14.5,13.7V361c0,6.7,6.2,12.4,14.5,13.7V397.3z M38.3,364.5c-1.3,0-2.5-0.5-3.4-1.3c-0.1-0.1-0.2-0.2-0.3-0.3
					c-0.1-0.1-0.1-0.2-0.2-0.3c-0.1-0.1-0.1-0.2-0.2-0.3c-0.2-0.3-0.3-0.6-0.3-1c0-0.1,0-0.2,0-0.4v-68.5c0-0.1,0-0.2,0-0.3
					c0.2-1.8,2.2-3.1,4.4-3.1h6.7c2.3,0,4.2,1.4,4.4,3.1c0,0.1,0,0.2,0,0.3V361c0,0.1,0,0.2,0,0.4c-0.2,1.8-2,3.2-4.4,3.2H38.3z"/>
			</g>
            <g>
				<path d="M175.7,347.5c-0.1-0.7-0.3-1.4-0.4-2.1c-0.1-0.7-0.3-1.5-0.4-2.2c0-0.1,0-0.1,0-0.2
					c-0.2-0.8-0.3-1.6-0.5-2.3c-0.2-0.7-0.3-1.5-0.4-2.2c-0.2-0.7-0.3-1.4-0.4-2.1c-0.1-0.7-0.3-1.3-0.4-2c-9-40.2-24.5-63-43.1-76
					c-0.3-0.2-0.6-0.4-0.9-0.6c-0.3-0.2-0.6-0.4-0.9-0.6c-0.3-0.2-0.6-0.4-1-0.6c-0.3-0.2-0.7-0.4-1-0.6c-0.3-0.2-0.7-0.4-1-0.6
					c-0.4-0.2-0.7-0.4-1.1-0.6c-0.4-0.2-0.7-0.4-1.1-0.6c-0.1-0.1-0.3-0.1-0.4-0.2c-21-11.4-45.2-12.4-68.6-12.5c-0.8,0-1.6,0-2.4,0
					c-0.6,0-1.1,0-1.7,0H36.6c-1.7,0-3.4,0-5.1,0c-0.6,0-1.2,0-1.9,0c-0.3,0-0.7,0-1,0c-18.7,0.2-37.3,1-54.3,6.6
					c-0.5,0.2-0.9,0.3-1.4,0.5c-0.3,0.1-0.5,0.2-0.8,0.3c-31.6,11.3-57.2,39.9-66.6,112.3c-0.1,1.1-0.3,2.2-0.4,3.3
					c-2.3,18.7-3.5,40.2-3.4,65c0,37.3,17.1,64.2,40.8,82.6c0.8,0.6,1.5,1.2,2.3,1.8c0.4,0.3,0.8,0.6,1.3,0.9
					c1.3,0.9,2.5,1.8,3.8,2.6c0.9,0.6,1.8,1.2,2.7,1.7c1.4,0.9,2.9,1.8,4.3,2.6h0c1,0.6,2.1,1.2,3.2,1.8c1.6,0.9,3.2,1.7,4.8,2.5
					c0.6,0.3,1.2,0.6,1.8,0.9c1.8,0.9,3.6,1.7,5.4,2.5c1.2,0.5,2.4,1.1,3.7,1.6c1.4,0.6,2.7,1.1,4.1,1.6c2.7,1,5.5,2,8.2,2.9
					c18.6,6.1,37.5,8.8,53.5,8.8c7.6,0,15.9-0.6,24.4-1.9c0.8-0.1,1.6-0.3,2.5-0.4c1.6-0.3,3.3-0.6,5-0.9c1.7-0.3,3.3-0.7,5-1
					c3.1-0.7,6.2-1.5,9.3-2.3c1.2-0.3,2.3-0.7,3.5-1h0c1.2-0.3,2.3-0.7,3.5-1.1c0,0,0,0,0,0c2.1-0.7,4.1-1.4,6.2-2.1
					c0.7-0.2,1.3-0.5,2-0.7c2-0.7,3.9-1.5,5.9-2.3c0,0,0,0,0,0c1.2-0.5,2.4-1,3.6-1.6c1.2-0.5,2.3-1.1,3.5-1.6
					c0.6-0.3,1.1-0.5,1.7-0.8c1.1-0.5,2.2-1.1,3.3-1.7h0c0.5-0.3,1-0.5,1.6-0.8c1-0.6,2.1-1.1,3.1-1.7c1-0.6,2-1.1,2.9-1.7
					c0.5-0.3,0.9-0.6,1.4-0.9c1.8-1.1,3.6-2.3,5.4-3.5c0.8-0.6,1.7-1.2,2.5-1.8c0.8-0.6,1.6-1.2,2.4-1.8c0.8-0.6,1.5-1.2,2.3-1.8
					c23-18.3,39.4-44.8,39.4-81.4C181.8,396.7,179.6,369.8,175.7,347.5z M38.3,289h6.7c2.3,0,4.2,1.5,4.4,3.2c0,0.1,0,0.2,0,0.3V361
					c0,0.1,0,0.2,0,0.4c-0.2,1.7-2.2,3.1-4.4,3.1h-6.7c-1.4,0-2.6-0.5-3.4-1.2c-0.1-0.1-0.2-0.2-0.3-0.3c-0.1-0.1-0.1-0.2-0.2-0.3
					c-0.1-0.1-0.1-0.2-0.2-0.3c-0.2-0.3-0.3-0.6-0.3-1c0-0.1,0-0.2,0-0.4v-68.5c0-0.1,0-0.2,0-0.3C34,290.4,35.9,289,38.3,289z
					 M30.1,391.4c-56.3-1.1-97.5-15.8-108.1-19.9c10.2-111.9,57.5-113.6,108.2-113.7v21c-7.7,1.3-13.4,6.5-13.4,12.7v70.1
					c0,6.2,5.7,11.4,13.3,12.7V391.4z M48.3,397.3v-22.6c8.3-1.2,14.5-7,14.5-13.7v-68.5c0-6.7-6.2-12.4-14.5-13.7v-27
					c55.2,0.1,106.7,1.8,117.8,123.5C128.4,389.3,88.8,396.6,48.3,397.3z"/>
			</g>
		</g>
        <g class="st1">
			<g class="st2">
				<path d="M183.8,299.4l0.2,1.8l13.4-0.8l-0.2-1.8c0-0.6-7.1-60-86.9-74l-2.2-0.4l-2.9,10.2l2.2,0.4
					C177.5,247.1,183.8,298.9,183.8,299.4z"/>
			</g>
		</g>
        <g class="st1">
			<g class="st2">
				<path d="M208.5,279.9l0.2,1.8l13.4-0.8l-0.2-1.8c0-0.5-7.1-59.9-86.9-73.8l-2.2-0.4l-2.9,10.2l2.2,0.4
					C202.2,227.9,208.5,279.5,208.5,279.9z"/>
			</g>
		</g>
	</g>
        <g class="st1">
		<g class="st2">
			<path d="M-28.9,234.5l-2.2,0.4c-70.1,12.2-76.5,64-76.5,64.6l-0.2,1.8l-13.4-0.8l0.2-1.8c0-0.6,7.1-60,86.9-74
				l2.2-0.4L-28.9,234.5z"/>
		</g>
	</g>
        <g class="st1">
		<g class="st2">
			<path d="M-55.8,215.5l2.2-0.4l-2.9-10.2l-2.2,0.4c-79.7,13.9-86.9,73.3-86.9,73.8l-0.2,1.8l13.4,0.8l0.2-1.8
				C-132.2,279.5-125.9,227.9-55.8,215.5z"/>
		</g>
	</g>
        <g>
		<g>
			<path d="M78.5,238.4l1.2,0.7l4-5.3l-1.2-0.7c-44-26.3-78.6-5.4-79-5.2l-1,0.6l5.7,5.7l1-0.6
				C9.6,233.5,39.8,215.3,78.5,238.4z"/>
		</g>
	</g>
        <g>
		<g>
			<path d="M77.4,224.2l1.2,0.7l4-5.4l-1.2-0.7c-44-27.1-78.6-5.6-78.9-5.4l-1,0.6l5.7,5.8l1-0.6
				C8.5,219.1,38.6,200.5,77.4,224.2z"/>
		</g>
	</g>
</g>
</svg>
