<?xml version="1.0" encoding="utf-8"?>
<!-- Generator: Adobe Illustrator 19.0.0, SVG Export Plug-In . SVG Version: 6.00 Build 0)  -->
<svg version="1.1" id="Capa_1" xmlns="http://www.w3.org/2000/svg" xmlns:xlink="http://www.w3.org/1999/xlink" x="0px" y="0px"
	 viewBox="-118 225.5 373.5 343.5" style="enable-background:new -118 225.5 373.5 343.5;" xml:space="preserve">
<g>
	<g>
		<g>
			<g>
				<path  d="M155.7,369.9c-0.1-0.4-0.2-0.9-0.3-1.3c-0.1-0.4-0.2-1-0.3-1.4c0-0.1,0-0.1,0-0.1c-0.1-0.5-0.2-1-0.3-1.5
					c-0.1-0.4-0.2-1-0.3-1.4c-0.1-0.4-0.2-0.9-0.3-1.3c-0.1-0.4-0.2-0.8-0.3-1.3c-5.6-25.5-15.3-40-27.2-48.2
					c-0.2-0.1-0.4-0.3-0.6-0.4c-0.2-0.1-0.4-0.3-0.6-0.4c-0.2-0.1-0.4-0.3-0.6-0.4c-0.2-0.1-0.4-0.3-0.6-0.4s-0.4-0.3-0.6-0.4
					c-0.3-0.1-0.4-0.3-0.7-0.4s-0.4-0.3-0.7-0.4c-0.1-0.1-0.2-0.1-0.3-0.1c-13-7-28.1-7.8-43.3-7.9c-0.5,0-1,0-1.5,0
					c-1.1,0-2.1,0-3.2,0h-8.5c-0.4,0-0.8,0-1.2,0s-0.8,0-1.2,0c-0.2,0-0.4,0-0.6,0c-11.6,0.1-23.4,0.5-34.3,4.2
					c-0.3,0.1-0.6,0.2-0.9,0.3c-0.2,0.1-0.3,0.1-0.5,0.2c-19.6,7.2-36,25.3-42.1,71.3c-0.1,0.7-0.2,1.4-0.3,2.1
					c-1.5,11.9-2.2,25.5-2.2,41.3c0,23.7,10.8,40.8,25.8,52.4c0.5,0.4,0.9,0.8,1.5,1.1c0.3,0.2,0.5,0.4,0.8,0.6
					c0.8,0.6,1.6,1.1,2.4,1.7c0.6,0.4,1.1,0.8,1.7,1.1c0.9,0.6,1.8,1.1,2.7,1.7l0,0c0.6,0.4,1.3,0.8,2,1.1c1,0.6,2,1.1,3,1.6
					c0.4,0.2,0.8,0.4,1.1,0.6c1.1,0.6,2.3,1.1,3.4,1.6c0.8,0.3,1.5,0.7,2.3,1c0.9,0.4,1.7,0.7,2.6,1c1.7,0.6,3.5,1.3,5.2,1.8
					c11.8,3.9,23.7,5.6,33.8,5.6c4.8,0,10-0.4,15.4-1.2c0.5-0.1,1-0.2,1.6-0.3c1-0.2,2.1-0.4,3.2-0.6c1.1-0.2,2.1-0.4,3.2-0.6
					c2-0.4,3.9-1,5.9-1.5c0.8-0.2,1.5-0.4,2.2-0.6l0,0c0.8-0.2,1.5-0.4,2.2-0.7l0,0c1.3-0.4,2.6-0.9,3.9-1.3
					c0.4-0.1,0.8-0.3,1.3-0.4c1.3-0.4,2.5-1,3.7-1.5l0,0c0.8-0.3,1.5-0.6,2.3-1c0.8-0.3,1.5-0.7,2.2-1c0.4-0.2,0.7-0.3,1.1-0.5
					c0.7-0.3,1.4-0.7,2.1-1.1l0,0c0.3-0.2,0.6-0.3,1-0.5c0.6-0.4,1.3-0.7,2-1.1c0.6-0.4,1.3-0.7,1.8-1.1c0.3-0.2,0.6-0.4,0.9-0.6
					c1.1-0.7,2.3-1.5,3.4-2.2c0.5-0.4,1.1-0.8,1.6-1.1s1-0.8,1.5-1.1c0.5-0.4,0.9-0.8,1.5-1.1c14.5-11.7,24.8-28.5,24.8-51.7
					C159.4,401.1,158.1,384,155.7,369.9z M78.2,397.8v-10.9c4.9-0.8,8.5-4.1,8.5-8.1v-44.5c0-3.9-3.7-7.3-8.5-8.1v-13.4
					c32,0.1,61.9,1.1,68.4,72.2C139.8,387.8,113.8,397.1,78.2,397.8z M66.8,401.5c-25.6-0.5-50.6-5.2-74.4-14
					c7-77.2,39.6-78.3,74.4-78.3v17.1c-5.2,0.8-9.2,4.4-9.2,8.7v43.5c0,4.3,3.9,7.9,9.2,8.7V401.5z M68.8,380.7
					c-0.8,0-1.6-0.3-2.1-0.8c-0.1-0.1-0.1-0.1-0.2-0.2c-0.1-0.1-0.1-0.1-0.1-0.2c-0.1-0.1-0.1-0.1-0.1-0.2c-0.1-0.2-0.2-0.4-0.2-0.6
					c0-0.1,0-0.1,0-0.3v-43.5c0-0.1,0-0.1,0-0.2c0.1-1.1,1.4-2,2.8-2h4.2c1.5,0,2.7,0.9,2.8,2c0,0.1,0,0.1,0,0.2v43.5
					c0,0.1,0,0.1,0,0.3c-0.1,1.1-1.3,2-2.8,2L68.8,380.7L68.8,380.7z"/>
			</g>
			<g>
				<path d="M155.7,369.9c-0.1-0.4-0.2-0.9-0.3-1.3c-0.1-0.4-0.2-1-0.3-1.4c0-0.1,0-0.1,0-0.1c-0.1-0.5-0.2-1-0.3-1.5
					c-0.1-0.4-0.2-1-0.3-1.4c-0.1-0.4-0.2-0.9-0.3-1.3c-0.1-0.4-0.2-0.8-0.3-1.3c-5.7-25.5-15.5-40-27.2-48.2
					c-0.2-0.1-0.4-0.3-0.6-0.4c-0.2-0.1-0.4-0.3-0.6-0.4c-0.2-0.1-0.4-0.3-0.6-0.4c-0.2-0.1-0.4-0.3-0.6-0.4s-0.4-0.3-0.6-0.4
					c-0.3-0.1-0.4-0.3-0.7-0.4s-0.4-0.3-0.7-0.4c-0.1-0.1-0.2-0.1-0.3-0.1c-13.3-7.2-28.6-7.9-43.3-7.9c-0.5,0-1,0-1.5,0
					c-0.4,0-0.7,0-1.1,0h-8.5c-1.1,0-2.1,0-3.2,0c-0.4,0-0.8,0-1.2,0c-0.2,0-0.4,0-0.6,0c-11.8,0.1-23.6,0.6-34.3,4.2
					c-0.3,0.1-0.6,0.2-0.9,0.3c-0.2,0.1-0.3,0.1-0.5,0.2c-20,7.2-36.1,25.3-42.1,71.3c-0.1,0.7-0.2,1.4-0.3,2.1
					c-1.5,11.9-2.2,25.5-2.1,41.3c0,23.7,10.8,40.8,25.8,52.4c0.5,0.4,0.9,0.8,1.5,1.1c0.3,0.2,0.5,0.4,0.8,0.6
					c0.8,0.6,1.6,1.1,2.4,1.7c0.6,0.4,1.1,0.8,1.7,1.1c0.9,0.6,1.8,1.1,2.7,1.7l0,0c0.6,0.4,1.3,0.8,2,1.1c1,0.6,2,1.1,3,1.6
					c0.4,0.2,0.8,0.4,1.1,0.6c1.1,0.6,2.3,1.1,3.4,1.6c0.8,0.3,1.5,0.7,2.3,1c0.9,0.4,1.7,0.7,2.6,1c1.7,0.6,3.5,1.3,5.2,1.8
					c11.8,3.9,23.7,5.6,33.8,5.6c4.8,0,10-0.4,15.4-1.2c0.5-0.1,1-0.2,1.6-0.3c1-0.2,2.1-0.4,3.2-0.6c1.1-0.2,2.1-0.4,3.2-0.6
					c2-0.4,3.9-1,5.9-1.5c0.8-0.2,1.5-0.4,2.2-0.6l0,0c0.8-0.2,1.5-0.4,2.2-0.7l0,0c1.3-0.4,2.6-0.9,3.9-1.3
					c0.4-0.1,0.8-0.3,1.3-0.4c1.3-0.4,2.5-1,3.7-1.5l0,0c0.8-0.3,1.5-0.6,2.3-1c0.8-0.3,1.5-0.7,2.2-1c0.4-0.2,0.7-0.3,1.1-0.5
					c0.7-0.3,1.4-0.7,2.1-1.1l0,0c0.3-0.2,0.6-0.3,1-0.5c0.6-0.4,1.3-0.7,2-1.1c0.6-0.4,1.3-0.7,1.8-1.1c0.3-0.2,0.6-0.4,0.9-0.6
					c1.1-0.7,2.3-1.5,3.4-2.2c0.5-0.4,1.1-0.8,1.6-1.1s1-0.8,1.5-1.1c0.5-0.4,0.9-0.8,1.5-1.1c14.5-11.6,24.9-28.4,24.9-51.7
					C159.5,401.1,158.1,384,155.7,369.9z M68.8,332.7h4.2c1.5,0,2.7,1,2.8,2c0,0.1,0,0.1,0,0.2v43.5c0,0.1,0,0.1,0,0.3
					c-0.1,1.1-1.4,2-2.8,2h-4.2c-0.9,0-1.6-0.3-2.1-0.8c-0.1-0.1-0.1-0.1-0.2-0.2s-0.1-0.1-0.1-0.2c-0.1-0.1-0.1-0.1-0.1-0.2
					c-0.1-0.2-0.2-0.4-0.2-0.6c0-0.1,0-0.1,0-0.3V335c0-0.1,0-0.1,0-0.2C66.1,333.6,67.3,332.7,68.8,332.7z M63.7,397.7
					c-35.6-0.7-61.6-10-68.3-12.6c6.4-71,36.3-72.1,68.4-72.2v13.3c-4.9,0.8-8.5,4.1-8.5,8.1v44.5c0,3.9,3.6,7.2,8.4,8.1
					C63.7,386.9,63.7,397.7,63.7,397.7z M75.2,401.5v-14.3c5.2-0.8,9.2-4.4,9.2-8.7V335c0-4.3-3.9-7.9-9.2-8.7v-17.1
					c34.9,0.1,67.4,1.1,74.4,78.4C125.8,396.4,100.8,401,75.2,401.5z"/>
			</g>
		</g>
	</g>
</g>
<g>
	<g>
		<g>
			<path d="M72.4,229.1c6.8,18.3,18.5,41.1,30.8,55.2l-30.8-11.1l-30.8,11.1C54.1,270.2,65.7,247.3,72.4,229.1z"/>
		</g>
	</g>
</g>
<g>
	<g>
		<g>
			<path d="M42.5,509.7l29.8,11.1l29.8-11.1c-11.9,14.1-23.2,36.9-29.8,55.2C65.8,546.7,54.5,523.8,42.5,509.7z"/>
		</g>
	</g>
</g>
<g>
	<g>
		<g>
			<path d="M194.5,429.3l11.1-30.8l-11.1-30.8c14.1,12.3,36.9,24,55.2,30.8C231.5,405.2,208.7,416.9,194.5,429.3z"/>
		</g>
	</g>
</g>
<g>
	<g>
		<g>
			<path d="M-114.4,398.5c18.3-6.8,41.1-18.5,55.2-30.8l-11.1,30.8l11.1,30.8C-73.3,416.9-96.2,405.2-114.4,398.5z"/>
		</g>
	</g>
</g>
</svg>
