<?xml version="1.0" encoding="utf-8"?>
<!-- Generator: Adobe Illustrator 19.0.0, SVG Export Plug-In . SVG Version: 6.00 Build 0)  -->
<svg version="1.1" id="Capa_1" xmlns="http://www.w3.org/2000/svg" xmlns:xlink="http://www.w3.org/1999/xlink" x="0px" y="0px"
	 viewBox="-150 202.3 373.5 343.5" style="enable-background:new -150 202.3 373.5 343.5;" xml:space="preserve">

<g>
	<g>
		<g>
			<g>
				<path d="M-98.5,429.5c0,38.5,18.3,66,43.2,84.3c0.4,0.3,0.8,0.6,1.3,0.9c1.3,0.9,2.5,1.8,3.8,2.6
					c0.9,0.6,1.8,1.2,2.7,1.7c1.4,0.9,2.9,1.8,4.3,2.6h0c1,0.6,2.1,1.2,3.2,1.8c1.6,0.9,3.2,1.7,4.8,2.5c0.6,0.3,1.2,0.6,1.8,0.9
					c1.8,0.9,3.6,1.7,5.4,2.5c1.2,0.5,2.4,1.1,3.7,1.6c1.4,0.6,2.7,1.1,4.1,1.6c2.7,1,5.5,2,8.2,2.9c18.6,6.1,37.5,8.8,53.5,8.8
					c7.6,0,15.9-0.6,24.4-1.9c0.8-0.1,1.6-0.3,2.5-0.4c1.6-0.3,3.3-0.6,5-0.9c1.7-0.3,3.3-0.7,5-1c3.1-0.7,6.2-1.5,9.3-2.3
					c2.3-0.7,4.7-1.3,7-2.1c0,0,0,0,0,0c2.1-0.7,4.1-1.4,6.2-2.1c0.7-0.2,1.3-0.5,2-0.7c2-0.7,3.9-1.5,5.8-2.3c0,0,0,0,0,0
					c1.2-0.5,2.4-1,3.6-1.6c1.2-0.5,2.3-1.1,3.5-1.6c35.7-17.2,65.8-48.4,65.8-97.9c0-32.6-2.1-59.6-5.9-81.9
					c-0.1-0.7-0.3-1.4-0.4-2.1c-0.1-0.7-0.3-1.5-0.4-2.2c0-0.1,0-0.1,0-0.2c-0.2-0.8-0.3-1.6-0.5-2.3c-0.2-0.7-0.3-1.5-0.4-2.2
					c-0.2-0.7-0.3-1.4-0.4-2.1c-9.1-42.8-25.4-66.3-45.3-79.2c-0.3-0.2-0.6-0.4-1-0.6c-0.3-0.2-0.7-0.4-1-0.6
					c-0.3-0.2-0.7-0.4-1-0.6c-0.4-0.2-0.7-0.4-1.1-0.6c-0.4-0.2-0.7-0.4-1.1-0.6c-0.1-0.1-0.3-0.1-0.4-0.2
					c-22.6-12.1-49.4-12.5-75.9-12.5H33.3c-0.6,0-1.2,0-1.9,0c-0.6,0-1.2,0-1.9,0c-0.3,0-0.7,0-1,0c-18.3,0.1-37,0.8-54.3,6.6
					c-0.5,0.2-0.9,0.3-1.4,0.5c-0.3,0.1-0.5,0.2-0.8,0.3c-31,11.3-57,39.8-66.6,112.3c-0.1,1.1-0.3,2.2-0.4,3.3
					C-97.2,383.1-98.5,404.6-98.5,429.5z M53.1,374.4c7.7-1.2,13.4-6.5,13.4-12.7v-70.1c0-6.2-5.8-11.5-13.4-12.7v-21.1
					c50.6,0.1,98,1.8,108.2,113.7c-10.6,4.2-51.9,18.9-108.2,20V374.4z M38.3,364.5c-1.3,0-2.5-0.5-3.4-1.3
					c-0.1-0.1-0.2-0.2-0.3-0.3c-0.1-0.1-0.1-0.2-0.2-0.3c-0.1-0.1-0.1-0.2-0.2-0.3c-0.2-0.3-0.3-0.6-0.3-1c0-0.1,0-0.2,0-0.4v-68.5
					c0-0.1,0-0.2,0-0.3c0.2-1.8,2.2-3.1,4.4-3.1h6.7c2.3,0,4.2,1.4,4.4,3.1c0,0.1,0,0.2,0,0.3V361c0,0.1,0,0.2,0,0.4
					c-0.2,1.8-2,3.2-4.4,3.2H38.3z M-82.8,375.3C-71.7,253.6-20.1,251.9,35,251.8v27c-8.3,1.3-14.5,7-14.5,13.7V361
					c0,6.7,6.2,12.4,14.5,13.7v22.7C-5.6,396.5-45.1,389.2-82.8,375.3z"/>
			</g>
			<g>
				<path d="M-98.3,429.5c0,38.5,18.2,65.9,43.1,84.3c0.4,0.3,0.8,0.6,1.3,0.9c1.3,0.9,2.5,1.8,3.8,2.6
					c0.9,0.6,1.8,1.2,2.7,1.7c1.4,0.9,2.9,1.8,4.3,2.6h0c1,0.6,2.1,1.2,3.2,1.8c1.6,0.9,3.2,1.7,4.8,2.5c0.6,0.3,1.2,0.6,1.8,0.9
					c1.8,0.9,3.6,1.7,5.4,2.5c1.2,0.5,2.4,1.1,3.7,1.6c1.4,0.6,2.7,1.1,4.1,1.6c2.7,1,5.5,2,8.2,2.9c18.6,6.1,37.5,8.8,53.5,8.8
					c7.6,0,15.9-0.6,24.4-1.9c0.8-0.1,1.6-0.3,2.5-0.4c1.6-0.3,3.3-0.6,5-0.9c1.7-0.3,3.3-0.7,5-1c3.1-0.7,6.2-1.5,9.3-2.3
					c2.3-0.6,4.7-1.3,7-2.1c0,0,0,0,0,0c2.1-0.7,4.1-1.4,6.2-2.1c0.7-0.2,1.3-0.5,2-0.7c2-0.7,3.9-1.5,5.8-2.3c0,0,0,0,0,0
					c1.2-0.5,2.4-1,3.6-1.6c1.2-0.5,2.3-1.1,3.5-1.6c35.8-17.2,65.9-48.3,65.9-97.9c0-32.6-2.2-59.6-6-81.9
					c-0.1-0.7-0.3-1.4-0.4-2.1c-0.1-0.7-0.3-1.5-0.4-2.2c0-0.1,0-0.1,0-0.2c-0.2-0.8-0.3-1.6-0.5-2.3c-0.2-0.7-0.3-1.5-0.4-2.2
					c-0.2-0.7-0.3-1.4-0.4-2.1c-9.3-42.8-25.6-66.2-45.3-79.2c-0.3-0.2-0.6-0.4-1-0.6c-0.3-0.2-0.7-0.4-1-0.6
					c-0.3-0.2-0.7-0.4-1-0.6c-0.4-0.2-0.7-0.4-1.1-0.6c-0.4-0.2-0.7-0.4-1.1-0.6c-0.1-0.1-0.3-0.1-0.4-0.2
					c-22.2-12-48-12.4-72.6-12.5H36.6c-1.7,0-3.4,0-5.1,0c-0.6,0-1.2,0-1.9,0c-0.3,0-0.7,0-1,0c-18.7,0.2-37.3,1-54.3,6.6
					c-0.5,0.2-0.9,0.3-1.4,0.5c-0.3,0.1-0.5,0.2-0.8,0.3c-31.6,11.3-57.2,39.9-66.6,112.3c-0.1,1.1-0.3,2.2-0.4,3.3
					C-97.2,383.1-98.4,404.6-98.3,429.5z M-78,371.5c10.2-111.9,57.5-113.6,108.2-113.7v21c-7.7,1.3-13.4,6.5-13.4,12.7v70.1
					c0,6.2,5.7,11.4,13.3,12.7v17.1C-26.2,390.3-67.4,375.6-78,371.5z M49.3,292.2c0,0.1,0,0.2,0,0.3V361c0,0.1,0,0.2,0,0.4
					c-0.2,1.7-2.2,3.1-4.4,3.1h-6.7c-1.4,0-2.6-0.5-3.4-1.2c-0.1-0.1-0.2-0.2-0.3-0.3c-0.1-0.1-0.1-0.2-0.2-0.3
					c-0.1-0.1-0.1-0.2-0.2-0.3c-0.2-0.3-0.3-0.6-0.3-1c0-0.1,0-0.2,0-0.4v-68.5c0-0.1,0-0.2,0-0.3c0.2-1.8,2-3.2,4.4-3.2h6.7
					C47.2,289,49.2,290.5,49.3,292.2z M48.3,374.7c8.3-1.2,14.5-7,14.5-13.7v-68.5c0-6.7-6.2-12.4-14.5-13.7v-27
					c55.2,0.1,106.7,1.8,117.8,123.5c-37.7,13.8-77.4,21.2-117.8,21.9V374.7z"/>
				<path d="M-67.1,363.3c8.4,3.5,41.5,19,86.5,20v-4.7c-6.1-1.1-9.8-8.9-10.7-23.7v-59.6c0.8-11.7,5.4-17.8,10.7-20.9
					v-7.7C-21.1,266.7-55.7,271.6-67.1,363.3z"/>
			</g>
		</g>
		<g>
			<g>
				<path d="M183.8,299.4l0.2,1.8l13.4-0.8l-0.2-1.8c0-0.6-7.1-60-86.9-74l-2.2-0.4l-2.9,10.2l2.2,0.4
					C177.5,247.1,183.8,298.9,183.8,299.4z"/>
			</g>
		</g>
		<g>
			<g>
				<path d="M208.5,279.9l0.2,1.8l13.4-0.8l-0.2-1.8c0-0.5-7.1-59.9-86.9-73.8l-2.2-0.4l-2.9,10.2l2.2,0.4
					C202.2,227.9,208.5,279.5,208.5,279.9z"/>
			</g>
		</g>
	</g>
</g>
</svg>
