<?xml version="1.0" encoding="utf-8"?>
<!-- Generator: Adobe Illustrator 19.0.0, SVG Export Plug-In . SVG Version: 6.00 Build 0)  -->
<svg version="1.1" id="Capa_1" xmlns="http://www.w3.org/2000/svg" x="0px"
     y="0px"
     viewBox="-134 208.3 343.5 337.5" style="enable-background:new -134 208.3 343.5 337.5;" xml:space="preserve">
<style type="text/css">

	.st1{display:none;}
	.st2{display:inline;}
	.st3{display:none;fill:#010002;}
	.st4{fill:none;stroke:#000000;stroke-width:5;stroke-miterlimit:10;}
</style>
    <g>
	<g>
		<g>
			<g>
				<path d="M165.4,360.8c-0.1-0.7-0.2-1.3-0.4-2c-0.1-0.7-0.2-1.3-0.4-2c0-0.1,0-0.1,0-0.2c-0.1-0.7-0.3-1.4-0.4-2.2
					c-0.1-0.7-0.3-1.3-0.4-2c-0.1-0.6-0.3-1.3-0.4-1.9c-0.1-0.6-0.3-1.2-0.4-1.8c-8.2-37.2-22.4-58.3-39.8-70.3
					c-0.3-0.2-0.6-0.4-0.8-0.6c-0.3-0.2-0.6-0.4-0.9-0.6c-0.3-0.2-0.6-0.4-0.9-0.6c-0.3-0.2-0.6-0.4-0.9-0.6c-0.3-0.2-0.6-0.4-1-0.6
					c-0.3-0.2-0.7-0.4-1-0.6c-0.3-0.2-0.7-0.4-1-0.6c-0.1-0.1-0.2-0.1-0.4-0.2c-19-10.2-41.1-11.4-63.4-11.5c-0.7,0-1.5,0-2.2,0
					c-1.5,0-3.1,0-4.6,0H33.6c-0.6,0-1.1,0-1.7,0s-1.1,0-1.7,0c-0.3,0-0.6,0-0.9,0c-16.9,0.1-34.2,0.8-50.2,6.1
					c-0.4,0.1-0.9,0.3-1.3,0.4c-0.2,0.1-0.5,0.2-0.7,0.3c-28.7,10.4-52.7,36.8-61.5,103.9c-0.1,1-0.2,2-0.4,3
					c-2.1,17.3-3.3,37.2-3.3,60.1c0,34.5,15.8,59.4,37.8,76.3c0.7,0.5,1.4,1.1,2.1,1.6c0.4,0.3,0.8,0.6,1.2,0.8
					c1.2,0.8,2.3,1.6,3.5,2.4c0.8,0.5,1.7,1.1,2.5,1.6c1.3,0.8,2.6,1.6,4,2.4h0c1,0.6,1.9,1.1,2.9,1.7c1.5,0.8,3,1.6,4.5,2.3
					c0.6,0.3,1.1,0.5,1.7,0.8c1.7,0.8,3.3,1.6,5,2.3c1.1,0.5,2.3,1,3.4,1.5c1.3,0.5,2.5,1,3.8,1.5c2.5,1,5.1,1.9,7.6,2.7
					c17.2,5.6,34.6,8.1,49.5,8.1c7,0,14.7-0.6,22.6-1.8c0.8-0.1,1.5-0.2,2.3-0.4c1.5-0.2,3.1-0.5,4.6-0.8c1.5-0.3,3.1-0.6,4.6-1
					c2.8-0.6,5.7-1.3,8.6-2.2c1.1-0.3,2.2-0.6,3.2-0.9h0c1.1-0.3,2.1-0.7,3.2-1c0,0,0,0,0,0c1.9-0.6,3.8-1.3,5.7-2
					c0.6-0.2,1.2-0.4,1.8-0.7c1.8-0.7,3.6-1.4,5.4-2.2c0,0,0,0,0,0c1.1-0.5,2.2-1,3.4-1.5c1.1-0.5,2.2-1,3.2-1.5
					c0.5-0.2,1-0.5,1.5-0.8c1-0.5,2.1-1,3.1-1.6h0c0.5-0.3,1-0.5,1.5-0.8c1-0.5,1.9-1.1,2.9-1.6c0.9-0.5,1.8-1,2.7-1.6
					c0.4-0.3,0.9-0.5,1.3-0.8c1.7-1.1,3.4-2.1,5-3.3c0.8-0.5,1.5-1.1,2.3-1.6c0.7-0.5,1.5-1.1,2.2-1.6c0.7-0.5,1.4-1.1,2.1-1.6
					c21.2-17,36.3-41.5,36.3-75.3C170.8,406.4,168.9,381.4,165.4,360.8z M52,401.5v-15.8c7.1-1.1,12.4-6,12.4-11.7v-64.8
					c0-5.7-5.3-10.6-12.4-11.7v-19.5c46.8,0.1,90.6,1.6,100,105.1C142.1,386.9,104,400.5,52,401.5z M35.2,406.9
					c-37.5-0.7-74.1-7.5-108.9-20.4c10.3-112.5,58-114.1,108.9-114.2v24.9c-7.7,1.2-13.4,6.5-13.4,12.6v63.4
					c0,6.2,5.8,11.5,13.4,12.6V406.9z M38.3,376.6c-1.2,0-2.4-0.5-3.1-1.2c-0.1-0.1-0.2-0.2-0.3-0.3c-0.1-0.1-0.1-0.2-0.2-0.3
					c-0.1-0.1-0.1-0.2-0.2-0.3c-0.2-0.3-0.3-0.6-0.3-0.9c0-0.1,0-0.2,0-0.3V310c0-0.1,0-0.2,0-0.2c0.2-1.6,2-2.9,4.1-2.9h6.2
					c2.2,0,3.9,1.3,4.1,2.9c0,0.1,0,0.2,0,0.2v63.3c0,0.1,0,0.2,0,0.3c-0.2,1.6-1.9,2.9-4.1,2.9H38.3z"/>
			</g>
            <g>
				<path d="M165.4,360.8c-0.1-0.7-0.2-1.3-0.4-2c-0.1-0.7-0.2-1.3-0.4-2c0-0.1,0-0.1,0-0.2c-0.1-0.7-0.3-1.4-0.4-2.2
					c-0.1-0.7-0.3-1.3-0.4-2c-0.1-0.6-0.3-1.3-0.4-1.9c-0.1-0.6-0.3-1.2-0.4-1.8c-8.3-37.2-22.6-58.3-39.8-70.3
					c-0.3-0.2-0.6-0.4-0.8-0.6c-0.3-0.2-0.6-0.4-0.9-0.6c-0.3-0.2-0.6-0.4-0.9-0.6c-0.3-0.2-0.6-0.4-0.9-0.6c-0.3-0.2-0.6-0.4-1-0.6
					c-0.3-0.2-0.7-0.4-1-0.6c-0.3-0.2-0.7-0.4-1-0.6c-0.1-0.1-0.2-0.1-0.4-0.2c-19.4-10.5-41.8-11.4-63.4-11.5c-0.7,0-1.5,0-2.2,0
					c-0.5,0-1,0-1.6,0H36.7c-1.6,0-3.2,0-4.8,0c-0.6,0-1.1,0-1.7,0c-0.3,0-0.6,0-0.9,0c-17.3,0.1-34.5,1-50.2,6.1
					c-0.4,0.1-0.9,0.3-1.3,0.4c-0.2,0.1-0.5,0.2-0.7,0.3c-29.2,10.5-52.9,36.9-61.5,103.9c-0.1,1-0.2,2-0.4,3
					c-2.1,17.3-3.2,37.2-3.2,60.1c0,34.5,15.8,59.4,37.7,76.3c0.7,0.5,1.4,1.1,2.1,1.6c0.4,0.3,0.8,0.6,1.2,0.8
					c1.2,0.8,2.3,1.6,3.5,2.4c0.8,0.5,1.7,1.1,2.5,1.6c1.3,0.8,2.6,1.6,4,2.4h0c1,0.6,1.9,1.1,2.9,1.7c1.5,0.8,3,1.6,4.5,2.3
					c0.6,0.3,1.1,0.5,1.7,0.8c1.7,0.8,3.3,1.6,5,2.3c1.1,0.5,2.3,1,3.4,1.5c1.3,0.5,2.5,1,3.8,1.5c2.5,1,5.1,1.9,7.6,2.7
					c17.2,5.6,34.6,8.1,49.5,8.1c7,0,14.7-0.6,22.6-1.8c0.8-0.1,1.5-0.2,2.3-0.4c1.5-0.2,3.1-0.5,4.6-0.8c1.5-0.3,3.1-0.6,4.6-1
					c2.8-0.6,5.7-1.3,8.6-2.2c1.1-0.3,2.2-0.6,3.2-0.9h0c1.1-0.3,2.1-0.7,3.2-1c0,0,0,0,0,0c1.9-0.6,3.8-1.3,5.7-2
					c0.6-0.2,1.2-0.4,1.8-0.7c1.8-0.7,3.6-1.4,5.4-2.2c0,0,0,0,0,0c1.1-0.5,2.2-1,3.4-1.5c1.1-0.5,2.2-1,3.2-1.5
					c0.5-0.2,1-0.5,1.5-0.8c1-0.5,2.1-1,3.1-1.6h0c0.5-0.3,1-0.5,1.5-0.8c1-0.5,1.9-1.1,2.9-1.6c0.9-0.5,1.8-1,2.7-1.6
					c0.4-0.3,0.9-0.5,1.3-0.8c1.7-1.1,3.4-2.1,5-3.3c0.8-0.5,1.5-1.1,2.3-1.6c0.7-0.5,1.5-1.1,2.2-1.6c0.7-0.5,1.4-1.1,2.1-1.6
					c21.3-16.9,36.4-41.5,36.4-75.3C170.9,406.4,169,381.4,165.4,360.8z M38.3,306.8h6.2c2.1,0,3.9,1.3,4.1,3c0,0.1,0,0.2,0,0.2
					v63.3c0,0.1,0,0.2,0,0.3c-0.2,1.6-2,2.9-4.1,2.9h-6.2c-1.3,0-2.4-0.4-3.1-1.1c-0.1-0.1-0.2-0.2-0.3-0.3
					c-0.1-0.1-0.1-0.2-0.2-0.3c-0.1-0.1-0.1-0.2-0.2-0.3c-0.2-0.3-0.2-0.6-0.3-0.9c0-0.1,0-0.2,0-0.3V310c0-0.1,0-0.2,0-0.2
					C34.3,308,36.1,306.8,38.3,306.8z M30.7,401.4c-52.1-1-90.2-14.6-99.9-18.4C-59.8,279.6-16,278,30.8,277.9v19.4
					c-7.1,1.2-12.3,6-12.3,11.7v64.8c0,5.7,5.2,10.6,12.3,11.7V401.4z M47.6,406.9V386c7.6-1.1,13.4-6.5,13.4-12.6v-63.3
					c0-6.2-5.8-11.5-13.4-12.6v-24.9c51,0.1,98.7,1.6,108.9,114.2C121.6,399.5,85,406.3,47.6,406.9z"/>
			</g>
		</g>
        <g class="st1">
			<g class="st2">
				<path d="M172.8,316.4l0.2,1.6l12.4-0.7l-0.2-1.6c0-0.6-6.6-55.4-80.3-68.4l-2-0.3l-2.7,9.4l2,0.3
					C167,268,172.8,315.9,172.8,316.4z"/>
			</g>
		</g>
        <g class="st1">
			<g class="st2">
				<path d="M195.7,298.3l0.2,1.6l12.4-0.7l-0.2-1.6c0-0.5-6.6-55.4-80.3-68.2l-2-0.3l-2.7,9.4l2,0.3
					C189.8,250.3,195.7,297.9,195.7,298.3z"/>
			</g>
		</g>
	</g>
        <g class="st1">
		<g class="st2">
			<path d="M-23.9,256.4l-2,0.3c-64.8,11.3-70.7,59.2-70.7,59.7l-0.2,1.6l-12.4-0.7l0.2-1.6c0-0.6,6.6-55.4,80.3-68.4
				l2-0.3L-23.9,256.4z"/>
		</g>
	</g>
        <g class="st1">
		<g class="st2">
			<path d="M-48.7,238.8l2-0.3l-2.7-9.4l-2,0.3c-73.7,12.9-80.3,67.7-80.3,68.2l-0.2,1.6l12.4,0.7l0.2-1.6
				C-119.4,297.9-113.5,250.3-48.7,238.8z"/>
		</g>
	</g>
        <g>
		<g>
			<path d="M93.1,259.7l1.7,1l5.7-7.4l-1.7-1C36.5,215.1-12.6,244.6-13,245l-1.5,0.9l8.1,8l1.5-0.9
				C-4.5,252.7,38.4,227,93.1,259.7z"/>
		</g>
	</g>
        <g>
		<g>
			<path d="M91.5,239.6l1.7,1l5.7-7.7l-1.7-1C35,193.5-14.1,224-14.5,224.3l-1.5,0.9l8.1,8.3l1.5-0.9
				C-6.1,232.3,36.6,205.9,91.5,239.6z"/>
		</g>
	</g>
</g>
    <path class="st3" d="M-59.2,375.1c7.8,3.2,38.4,17.6,80,18.5v-4.3c-5.6-1-9.1-8.2-9.9-21.9v-55.1c0.7-10.8,5-16.5,9.9-19.3v-7.1
	C-16.7,285.8-48.6,290.3-59.2,375.1z"/>
    <path class="st3" d="M62,285.7v7.1c4.9,2.9,9.2,8.5,9.9,19.3v55.1c-0.8,13.7-4.3,20.9-9.9,21.9v4.3c41.6-0.9,72.2-15.3,80-18.5
	C131.5,290.3,99.5,285.7,62,285.7z"/>
    <g class="st1">
	<g class="st2">
		<path d="M-129.1,372.4c17-6.3,38.2-17.1,51.3-28.5l-10.3,28.5l10.3,28.5C-90.9,389.5-112,378.7-129.1,372.4z"/>
	</g>
</g>
    <g class="st1">
	<g class="st2">
		<path d="M206.1,372.4c-17,6.3-38.2,17.1-51.3,28.5l10.3-28.5l-10.3-28.5C167.9,355.3,189,366.1,206.1,372.4z"/>
	</g>
</g>
    <g class="st1">
	<g class="st2">
		<line class="st4" x1="39.9" y1="506.7" x2="39.9" y2="514"/>
        <g>
			<path d="M39.9,544.2c-5.3-14.2-14.3-31.8-23.8-42.7l23.8,8.6l23.8-8.6C54.2,512.4,45.2,530,39.9,544.2z"/>
		</g>
	</g>
</g>
    <g class="st1">
	<g class="st2">
		<path d="M39.9,211.9c6.3,17,17.1,38.2,28.5,51.3l-28.5-10.3l-28.5,10.3C22.8,250.1,33.6,228.9,39.9,211.9z"/>
	</g>
</g>
</svg>
